<svg width="958" height="235" viewBox="0 0 958 235" fill="none" xmlns="http://www.w3.org/2000/svg">
<path d="M212.089 141.488C210.969 141.04 209.663 140.405 208.169 139.584C206.676 138.837 205.257 137.829 203.913 136.56C202.569 135.29 201.524 133.76 200.777 131.968C200.031 129.802 199.508 127.674 199.209 125.584C198.985 123.493 198.911 121.066 198.985 118.304C198.985 114.421 199.247 111.061 199.769 108.224C200.367 105.312 201.263 102.362 202.457 99.3757C202.607 99.1517 202.868 98.517 203.241 97.4717C203.689 96.3517 204.175 95.157 204.697 93.8877C205.295 92.6184 205.743 91.6477 206.041 90.9757C206.639 89.7064 207.535 88.0264 208.729 85.9357C209.999 83.7704 211.343 81.6797 212.761 79.6637C214.927 76.453 216.756 73.8397 218.249 71.8237C219.743 69.733 221.161 67.9784 222.505 66.5597C223.924 65.141 225.455 63.7597 227.097 62.4157C228.815 61.0717 230.943 59.541 233.481 57.8237C235.124 56.629 237.215 55.8824 239.753 55.5837C242.367 55.285 244.905 55.6957 247.369 56.8157C249.833 57.861 251.663 59.877 252.857 62.8637C253.679 64.4317 254.052 66.4104 253.977 68.7997C253.903 71.1144 253.455 73.6157 252.633 76.3037C251.812 78.917 250.767 81.381 249.497 83.6957C248.228 86.0104 246.809 87.877 245.241 89.2957C244.271 90.1917 242.964 90.341 241.321 89.7437C239.753 89.1464 238.447 88.3624 237.401 87.3917C236.729 86.1224 236.356 85.3757 236.281 85.1517C236.281 84.9277 236.431 84.7784 236.729 84.7037C237.177 84.181 237.775 83.285 238.521 82.0157C239.268 80.7464 240.015 79.4024 240.761 77.9837C241.508 76.4904 242.031 75.2957 242.329 74.3997C242.927 71.2637 243.337 69.2104 243.561 68.2397C243.785 67.1944 243.561 66.3357 242.889 65.6637C242.591 65.365 242.143 65.253 241.545 65.3277C241.023 65.4024 240.127 65.7757 238.857 66.4477C237.14 67.1944 235.087 68.725 232.697 71.0397C230.383 73.2797 228.068 75.9677 225.753 79.1037C222.767 83.061 220.265 86.5704 218.249 89.6317C216.233 92.693 214.703 95.829 213.657 99.0397C213.508 99.3384 213.247 99.8984 212.873 100.72C212.575 101.541 212.425 101.952 212.425 101.952C212.5 102.25 212.388 102.997 212.089 104.192C211.791 105.312 211.455 106.282 211.081 107.104C210.26 110.538 209.775 113.861 209.625 117.072C209.476 120.208 209.663 122.97 210.185 125.36C210.783 127.674 211.641 129.392 212.761 130.512C213.732 131.184 214.964 131.408 216.457 131.184C217.951 130.96 219.668 130.437 221.609 129.616C223.551 128.794 225.641 127.898 227.881 126.928C229.673 126.181 231.316 125.36 232.809 124.464C234.303 123.568 235.423 122.784 236.169 122.112C236.767 121.664 237.513 121.216 238.409 120.768C239.38 120.245 240.201 119.984 240.873 119.984C241.919 119.61 242.703 119.909 243.225 120.88C243.748 121.85 244.009 123.082 244.009 124.576C244.009 125.621 243.263 126.89 241.769 128.384C240.276 129.877 238.633 131.146 236.841 132.192C236.244 132.789 235.423 133.349 234.377 133.872C233.407 134.32 232.399 134.73 231.353 135.104C229.785 136.298 227.844 137.456 225.529 138.576C223.215 139.696 220.863 140.554 218.473 141.152C216.159 141.749 214.031 141.861 212.089 141.488ZM257.163 135.328C255.745 135.701 254.475 135.29 253.355 134.096C252.235 132.976 251.451 131.296 251.003 129.056C250.555 126.816 250.63 124.314 251.227 121.552C251.601 120.656 251.899 119.797 252.123 118.976C252.347 118.08 252.459 117.37 252.459 116.848C252.609 116.101 252.907 115.018 253.355 113.6C253.803 112.106 254.289 110.576 254.811 109.008C255.334 107.44 255.819 106.058 256.267 104.864C256.79 103.594 257.126 102.81 257.275 102.512C257.574 102.512 257.835 102.25 258.059 101.728C258.283 101.205 258.395 100.682 258.395 100.16C258.395 99.5624 258.507 98.8904 258.731 98.1437C259.03 97.397 259.329 96.8744 259.627 96.5757C259.627 96.2024 259.702 95.7917 259.851 95.3437C260.075 94.821 260.187 94.4104 260.187 94.1117C260.187 93.813 260.262 93.5144 260.411 93.2157C260.635 92.917 260.747 92.6184 260.747 92.3197C261.27 91.349 261.942 89.8184 262.763 87.7277C263.659 85.5624 264.593 83.173 265.563 80.5597C266.609 77.9464 267.579 75.3704 268.475 72.8317C269.371 70.293 270.081 68.165 270.603 66.4477C271.201 64.6557 271.499 63.573 271.499 63.1997C271.499 62.6024 271.723 62.0424 272.171 61.5197C272.619 60.997 273.142 60.7357 273.739 60.7357C273.963 60.5117 274.486 60.3624 275.307 60.2877C276.129 60.1384 276.689 60.0637 276.987 60.0637C276.987 60.0637 277.137 60.213 277.435 60.5117C277.734 60.8104 278.182 61.2584 278.779 61.8557C279.377 62.3784 279.937 62.9757 280.459 63.6477C281.057 64.3197 281.355 65.1037 281.355 65.9997C281.355 66.9704 281.206 67.9037 280.907 68.7997C280.683 69.6957 280.235 70.9277 279.563 72.4957C278.891 73.989 277.846 76.229 276.427 79.2157C275.83 80.709 275.195 82.1277 274.523 83.4717C273.851 84.741 273.515 85.525 273.515 85.8237C273.515 86.1224 273.366 86.5704 273.067 87.1677C272.843 87.765 272.582 88.5117 272.283 89.4077C271.985 90.005 271.574 90.901 271.051 92.0957C270.529 93.2157 269.969 94.4477 269.371 95.7917C268.849 97.061 268.401 98.181 268.027 99.1517C267.654 100.048 267.467 100.57 267.467 100.72C267.467 101.018 267.43 101.317 267.355 101.616C267.355 101.914 267.206 102.213 266.907 102.512C266.609 102.512 266.422 102.736 266.347 103.184C266.347 103.557 266.347 103.744 266.347 103.744C266.347 104.49 265.75 106.469 264.555 109.68C263.361 113.786 262.241 117.557 261.195 120.992C260.225 124.426 259.739 127.189 259.739 129.28C259.739 131.072 259.441 132.453 258.843 133.424C258.321 134.394 257.761 135.029 257.163 135.328ZM272.702 132.192C272.104 131.594 271.656 130.698 271.358 129.504C271.134 128.309 271.059 127.152 271.134 126.032C271.208 124.837 271.395 123.941 271.694 123.344C271.694 122.746 271.768 122.298 271.918 122C272.142 121.626 272.216 121.29 272.142 120.992C272.067 120.693 272.142 120.17 272.366 119.424C272.59 118.677 272.814 117.968 273.038 117.296C273.56 116.101 274.158 114.57 274.83 112.704C275.502 110.762 276.174 108.821 276.846 106.88C277.518 104.864 278.078 103.146 278.526 101.728C278.974 100.234 279.235 99.3384 279.31 99.0397C279.31 98.1437 279.907 97.6584 281.102 97.5837C281.998 97.285 283.08 97.6584 284.35 98.7037C285.619 99.749 286.627 100.869 287.374 102.064C287.971 102.661 288.195 103.445 288.046 104.416C287.896 105.386 287.411 106.768 286.59 108.56C286.291 109.157 285.918 110.165 285.47 111.584C285.096 112.928 284.835 114.048 284.686 114.944C284.387 115.541 284.014 116.4 283.566 117.52C283.192 118.565 282.856 119.573 282.558 120.544C282.408 120.917 282.259 121.626 282.11 122.672C281.96 123.642 281.774 124.65 281.55 125.696C281.326 126.741 281.027 127.562 280.654 128.16C279.982 131.221 278.787 133.013 277.07 133.536C275.427 134.058 273.971 133.61 272.702 132.192ZM284.798 87.2797C283.976 86.6824 283.342 85.973 282.894 85.1517C282.52 84.2557 282.296 83.4717 282.222 82.7997C282.222 82.1277 282.296 81.717 282.446 81.5677C283.192 80.7464 283.827 79.6637 284.35 78.3197C284.947 76.9757 285.582 75.7437 286.254 74.6237C286.403 74.3997 286.59 74.101 286.814 73.7277C287.112 73.2797 287.411 73.0184 287.71 72.9437C288.606 72.3464 289.838 72.3837 291.406 73.0557C293.048 73.7277 294.243 74.661 294.99 75.8557C295.662 77.2744 295.848 78.7304 295.55 80.2237C295.326 81.717 294.542 83.285 293.198 84.9277C292.078 86.421 290.659 87.3917 288.942 87.8397C287.224 88.213 285.843 88.0264 284.798 87.2797ZM304.206 133.2C302.563 133.2 301.331 133.125 300.51 132.976C299.763 132.826 299.203 132.602 298.83 132.304C298.457 132.005 297.971 131.594 297.374 131.072C297.075 130.474 296.553 129.728 295.806 128.832C295.059 127.861 294.537 127.226 294.238 126.928C293.939 125.808 293.827 124.277 293.902 122.336C294.051 120.394 294.387 118.304 294.91 116.064C295.433 113.824 296.067 111.808 296.814 110.016C297.113 109.418 297.374 108.821 297.598 108.224C297.822 107.626 297.934 107.328 297.934 107.328C297.934 106.954 298.382 106.058 299.278 104.64C300.249 103.221 301.294 101.728 302.414 100.16C303.609 98.5917 304.579 97.4717 305.326 96.7997C305.849 96.2024 306.633 95.5677 307.678 94.8957C308.798 94.2237 309.769 93.7384 310.59 93.4397C311.411 93.141 312.531 92.7677 313.95 92.3197C315.369 91.797 316.638 91.5357 317.758 91.5357C318.803 91.5357 319.923 91.7597 321.118 92.2077C322.313 92.6557 323.321 93.4397 324.142 94.5597C325.486 95.9037 326.345 97.509 326.718 99.3757C327.091 101.242 327.129 102.848 326.83 104.192C326.457 105.685 325.71 106.917 324.59 107.888C323.47 108.784 322.275 109.269 321.006 109.344C319.737 109.344 318.617 108.821 317.646 107.776C317.347 107.178 317.198 106.693 317.198 106.32C317.198 105.872 317.347 105.237 317.646 104.416C317.945 103.37 318.094 102.437 318.094 101.616C318.094 100.794 317.758 100.384 317.086 100.384C316.115 100.384 315.331 100.682 314.734 101.28C314.137 101.802 313.241 102.698 312.046 103.968C311.523 104.565 310.851 105.424 310.03 106.544C309.209 107.664 308.387 108.896 307.566 110.24C306.819 111.509 306.147 112.816 305.55 114.16C304.729 116.624 304.206 118.229 303.982 118.976C303.833 119.648 303.758 119.984 303.758 119.984C303.758 120.282 303.721 120.581 303.646 120.88C303.571 121.104 303.534 121.365 303.534 121.664C303.534 122.56 304.057 123.269 305.102 123.792C305.923 124.314 306.595 124.576 307.118 124.576C307.715 124.501 308.835 124.09 310.478 123.344C311.673 122.746 312.793 121.962 313.838 120.992C314.958 120.021 316.115 119.162 317.31 118.416C318.131 117.893 318.766 117.445 319.214 117.072C319.737 116.698 319.998 116.661 319.998 116.96C319.998 117.258 320.11 117.408 320.334 117.408C320.558 117.408 320.819 117.258 321.118 116.96C321.566 116.362 322.126 116.138 322.798 116.288C323.47 116.362 324.067 116.549 324.59 116.848C325.187 117.146 325.486 117.408 325.486 117.632C325.337 118.304 325.486 118.864 325.934 119.312C325.934 119.61 325.822 120.021 325.598 120.544C325.449 120.992 325.225 121.365 324.926 121.664C324.553 122.186 323.993 122.933 323.246 123.904C322.574 124.874 321.939 125.733 321.342 126.48C320.745 127.226 320.446 127.6 320.446 127.6C320.147 127.525 319.849 127.6 319.55 127.824C319.326 128.048 319.065 128.309 318.766 128.608C318.169 129.13 317.609 129.541 317.086 129.84C316.563 130.064 316.153 130.176 315.854 130.176C315.331 130.474 314.921 130.661 314.622 130.736C314.398 130.81 314.286 130.997 314.286 131.296C313.539 132.042 312.195 132.565 310.254 132.864C308.313 133.088 306.297 133.2 304.206 133.2ZM357.669 134.992C357.371 134.693 356.923 134.32 356.325 133.872C355.728 133.349 355.28 132.826 354.981 132.304C354.832 132.08 354.459 131.669 353.861 131.072C353.264 130.4 352.667 129.765 352.069 129.168C351.472 128.496 351.061 128.085 350.837 127.936C350.688 127.562 350.427 127.152 350.053 126.704C349.68 126.181 349.269 125.658 348.821 125.136C348.373 124.538 347.851 123.978 347.253 123.456C346.432 122.336 345.76 121.477 345.237 120.88C344.789 120.282 344.416 119.984 344.117 119.984C344.117 119.984 343.893 120.693 343.445 122.112C342.997 123.456 342.512 125.024 341.989 126.816C341.467 128.533 341.019 129.952 340.645 131.072C340.347 131.594 340.048 132.005 339.749 132.304C339.451 132.602 339.152 132.826 338.853 132.976C338.629 133.125 338.368 133.237 338.069 133.312C337.771 133.312 337.472 133.312 337.173 133.312C336.352 133.312 335.307 132.938 334.037 132.192C332.768 131.445 332.133 130.362 332.133 128.944C331.835 127.898 332.208 125.621 333.253 122.112C334.299 118.602 335.904 114.122 338.069 108.672C338.368 107.552 338.741 106.394 339.189 105.2C339.637 103.93 340.011 102.885 340.309 102.064C341.429 98.405 342.661 95.045 344.005 91.9837C345.349 88.8477 346.843 85.3757 348.485 81.5677C349.157 80.2237 349.643 79.253 349.941 78.6557C350.24 77.9837 350.576 77.3117 350.949 76.6397C351.323 75.893 351.883 74.8104 352.629 73.3917C354.272 70.3304 355.579 67.941 356.549 66.2237C357.52 64.5064 358.267 63.237 358.789 62.4157C359.312 61.5944 359.76 60.997 360.133 60.6237C360.507 60.2504 361.104 59.989 361.925 59.8397C362.747 59.6904 363.568 59.6904 364.389 59.8397C365.285 59.9144 365.92 60.1757 366.293 60.6237C366.891 61.221 367.339 61.8184 367.637 62.4157C367.936 62.9384 367.936 63.685 367.637 64.6557C367.413 65.5517 366.741 66.933 365.621 68.7997C365.024 70.1437 364.539 71.1144 364.165 71.7117C363.792 72.309 363.419 72.9064 363.045 73.5037C362.672 74.101 362.075 75.1464 361.253 76.6397C361.179 76.9384 361.029 77.2744 360.805 77.6477C360.656 77.9464 360.469 78.245 360.245 78.5437C360.021 78.7677 359.797 78.8797 359.573 78.8797C359.573 79.1037 359.461 79.5517 359.237 80.2237C359.013 80.8957 358.752 81.5304 358.453 82.1277C358.229 82.949 357.856 83.845 357.333 84.8157C356.885 85.7117 356.549 86.4584 356.325 87.0557C355.728 88.4744 354.907 90.1917 353.861 92.2077C352.891 94.149 352.293 95.717 352.069 96.9117C352.069 97.061 352.181 97.0984 352.405 97.0237C352.629 96.8744 352.891 96.6877 353.189 96.4637C353.563 96.165 353.899 95.941 354.197 95.7917C355.915 94.4477 357.744 93.1784 359.685 91.9837C361.701 90.789 363.381 90.0797 364.725 89.8557C365.472 89.6317 366.144 89.5197 366.741 89.5197C367.339 89.445 367.899 89.445 368.421 89.5197C368.944 89.5944 369.467 89.7437 369.989 89.9677C370.811 90.4904 371.557 91.461 372.229 92.8797C372.901 94.2984 373.387 95.717 373.685 97.1357C373.685 97.8077 373.349 99.0397 372.677 100.832C372.08 102.549 371.333 104.266 370.437 105.984C369.616 107.626 368.832 108.746 368.085 109.344C367.712 109.493 367.376 109.642 367.077 109.792C366.853 109.941 366.667 110.09 366.517 110.24C366.443 110.314 366.405 110.352 366.405 110.352C366.405 110.65 366.256 111.024 365.957 111.472C365.733 111.92 365.323 112.293 364.725 112.592C364.427 112.89 364.091 113.264 363.717 113.712C363.344 114.16 363.157 114.496 363.157 114.72C363.157 114.72 363.157 114.832 363.157 115.056C363.157 115.205 363.157 115.28 363.157 115.28C362.859 115.28 362.597 115.317 362.373 115.392C362.224 115.392 361.739 115.69 360.917 116.288C360.096 117.109 359.499 117.557 359.125 117.632C358.827 117.706 358.379 117.856 357.781 118.08C357.483 118.378 357.109 118.565 356.661 118.64C356.288 118.714 356.101 118.901 356.101 119.2C356.101 119.498 356.4 120.058 356.997 120.88C357.595 121.701 358.304 122.597 359.125 123.568C360.021 124.538 360.88 125.434 361.701 126.256C362.523 127.077 363.157 127.637 363.605 127.936C364.128 128.16 364.501 128.57 364.725 129.168C364.949 129.765 365.061 130.4 365.061 131.072C365.136 131.744 365.099 132.378 364.949 132.976C364.875 133.573 364.763 134.021 364.613 134.32C364.464 134.469 363.941 134.656 363.045 134.88C362.224 135.178 361.291 135.365 360.245 135.44C359.275 135.514 358.416 135.365 357.669 134.992ZM351.173 113.6C351.547 113.301 352.219 112.741 353.189 111.92C354.235 111.098 355.355 110.202 356.549 109.232C357.744 108.186 358.827 107.178 359.797 106.208C360.843 105.237 361.589 104.49 362.037 103.968C362.56 103.445 363.12 102.586 363.717 101.392C364.315 100.197 364.427 99.2264 364.053 98.4797C363.979 98.181 363.419 98.3677 362.373 99.0397C361.328 99.7117 359.984 100.458 358.341 101.28C357.072 102.026 355.653 102.885 354.085 103.856C352.592 104.752 351.173 105.76 349.829 106.88C348.485 107.925 347.44 109.082 346.693 110.352C346.544 110.874 346.693 111.472 347.141 112.144C347.589 112.816 348.187 113.338 348.933 113.712C349.68 114.01 350.427 113.973 351.173 113.6ZM424.109 138.8C423.81 139.098 423.474 139.21 423.101 139.136C422.728 139.136 422.13 138.949 421.309 138.576C419.89 138.202 418.621 137.381 417.501 136.112C416.456 134.842 416.306 133.386 417.053 131.744C417.352 131.221 417.725 130.101 418.173 128.384C418.696 126.592 419.256 124.538 419.853 122.224C420.45 119.909 421.048 117.594 421.645 115.28C422.242 112.965 422.765 110.949 423.213 109.232C423.661 107.44 423.96 106.245 424.109 105.648C424.109 105.05 424.258 103.856 424.557 102.064C424.93 100.272 425.266 98.2557 425.565 96.0157C426.386 94.4477 426.946 92.7304 427.245 90.8637C427.618 88.997 427.88 87.653 428.029 86.8317C428.328 85.637 428.664 84.3677 429.037 83.0237C429.485 81.6797 429.858 80.3357 430.157 78.9917C430.456 77.797 430.754 76.565 431.053 75.2957C431.426 74.0264 431.613 73.205 431.613 72.8317V71.0397H427.469C426.349 71.1144 425.08 71.1144 423.661 71.0397C422.242 70.965 420.674 70.9277 418.957 70.9277C415.448 70.7784 413.096 70.4424 411.901 69.9197C410.781 69.3224 410.146 68.2024 409.997 66.5597C409.848 65.6637 410.034 64.8797 410.557 64.2077C411.08 63.461 412.312 62.8637 414.253 62.4157C416.194 61.9677 419.181 61.8184 423.213 61.9677C426.349 61.8184 428.813 61.8184 430.605 61.9677C432.397 62.0424 433.442 62.0797 433.741 62.0797C434.04 61.781 434.226 61.4824 434.301 61.1837C434.376 60.885 434.488 60.5864 434.637 60.2877C434.637 59.9144 434.674 59.5037 434.749 59.0557C434.898 58.533 435.272 58.1597 435.869 57.9357C436.466 56.8157 437.586 56.3677 439.229 56.5917C440.946 56.741 442.216 57.413 443.037 58.6077C443.336 59.2797 443.41 59.989 443.261 60.7357C443.186 61.4824 443.41 62.1544 443.933 62.7517C444.232 62.453 445.016 62.2664 446.285 62.1917C447.554 62.117 448.898 62.0424 450.317 61.9677C452.034 61.9677 453.565 61.9304 454.909 61.8557C456.253 61.7064 457.186 61.6317 457.709 61.6317C458.381 61.2584 459.24 61.0717 460.285 61.0717C461.405 61.0717 462.525 61.1464 463.645 61.2957C465.362 61.2957 466.557 61.7437 467.229 62.6397C467.976 63.461 468.461 64.0584 468.685 64.4317C468.685 64.7304 468.685 65.029 468.685 65.3277C468.76 65.6264 468.946 65.925 469.245 66.2237C469.544 66.5224 469.693 66.7464 469.693 66.8957C469.693 66.9704 469.544 67.3064 469.245 67.9037C468.946 68.2024 468.424 68.4637 467.677 68.6877C466.93 68.837 466.109 68.9117 465.213 68.9117C464.69 68.9117 463.794 68.9864 462.525 69.1357C461.256 69.2104 460.173 69.2477 459.277 69.2477C457.56 69.5464 455.88 69.8077 454.237 70.0317C452.594 70.181 450.466 70.3304 447.853 70.4797C446.733 70.4797 445.688 70.5544 444.717 70.7037C443.746 70.7784 443.261 71.0024 443.261 71.3757C442.962 71.3757 442.552 72.1597 442.029 73.7277C441.581 75.2957 441.133 76.9384 440.685 78.6557C440.237 80.597 439.752 82.277 439.229 83.6957C438.781 85.1144 438.408 86.0477 438.109 86.4957C438.408 86.7944 438.52 87.1677 438.445 87.6157C438.445 88.0637 438.221 88.8477 437.773 89.9677C437.474 91.013 437.176 91.8344 436.877 92.4317C436.653 93.029 436.541 93.6264 436.541 94.2237C436.541 94.2237 436.354 94.821 435.981 96.0157C435.682 97.1357 435.384 98.5544 435.085 100.272C434.936 101.914 434.712 103.296 434.413 104.416C434.189 105.536 433.928 106.245 433.629 106.544C433.629 106.544 433.48 106.805 433.181 107.328C432.882 107.776 432.733 108.298 432.733 108.896C432.733 109.568 432.584 110.688 432.285 112.256C432.061 113.749 431.8 115.168 431.501 116.512C431.202 117.856 430.941 118.602 430.717 118.752C431.464 118.901 431.352 119.909 430.381 121.776C430.381 122.522 430.269 123.269 430.045 124.016C429.821 124.762 429.709 125.285 429.709 125.584C429.261 127.002 428.626 128.72 427.805 130.736C426.984 132.752 426.2 134.544 425.453 136.112C424.781 137.68 424.333 138.576 424.109 138.8ZM456.693 133.2C455.125 133.498 453.93 133.424 453.109 132.976C452.362 132.453 451.578 131.818 450.757 131.072C449.562 130.474 448.48 129.653 447.509 128.608C446.538 127.488 445.792 126.33 445.269 125.136C444.746 123.941 444.522 123.008 444.597 122.336C444.821 119.722 445.418 116.885 446.389 113.824C447.434 110.762 448.741 107.776 450.309 104.864C451.952 101.952 453.781 99.3757 455.797 97.1357C457.888 94.821 460.128 93.141 462.517 92.0957C464.01 91.4984 465.616 91.2744 467.333 91.4237C469.05 91.573 470.208 92.2824 470.805 93.5517C471.925 95.717 471.664 97.0984 470.021 97.6957C469.797 97.6957 469.536 97.8077 469.237 98.0317C468.938 98.181 468.789 98.405 468.789 98.7037C469.088 98.853 469.909 98.8904 471.253 98.8157C472.597 98.6664 473.941 98.4424 475.285 98.1437C476.704 97.7704 477.637 97.397 478.085 97.0237C478.533 96.7997 478.869 96.6877 479.093 96.6877C479.317 96.6877 479.877 96.7624 480.773 96.9117C482.042 97.285 482.677 97.733 482.677 98.2557C482.677 98.5544 482.789 99.0397 483.013 99.7117C483.237 100.309 483.498 100.608 483.797 100.608C484.32 100.682 484.432 101.205 484.133 102.176C483.909 103.146 483.05 104.154 481.557 105.2C480.138 106.096 479.242 106.693 478.869 106.992C478.57 107.216 478.533 107.738 478.757 108.56C479.354 109.978 479.317 111.696 478.645 113.712C477.973 115.728 476.853 117.818 475.285 119.984C473.717 122.149 471.85 124.202 469.685 126.144C467.594 128.01 465.392 129.616 463.077 130.96C460.837 132.229 458.709 132.976 456.693 133.2ZM457.029 123.792C457.328 123.792 457.85 123.642 458.597 123.344C459.344 122.97 459.941 122.672 460.389 122.448C460.688 122.149 461.061 121.813 461.509 121.44C462.032 120.992 462.442 120.73 462.741 120.656C463.04 120.656 463.226 120.544 463.301 120.32C463.376 120.021 463.637 119.461 464.085 118.64C464.533 117.744 465.429 116.437 466.773 114.72C468.266 113.077 469.237 111.77 469.685 110.8C470.133 109.754 470.17 108.634 469.797 107.44C469.722 107.141 469.498 106.954 469.125 106.88C468.826 106.805 468.416 106.618 467.893 106.32C467.146 106.32 466.624 106.506 466.325 106.88C466.101 107.178 465.578 106.992 464.757 106.32L462.965 104.08L461.061 105.984C459.866 107.178 458.784 108.672 457.813 110.464C456.917 112.256 456.208 114.085 455.685 115.952C455.162 117.818 454.826 119.461 454.677 120.88C454.602 122 454.789 122.746 455.237 123.12C455.685 123.493 456.282 123.717 457.029 123.792ZM542.988 138.128C539.703 138.576 536.305 138.464 532.796 137.792C529.287 137.194 526.188 135.962 523.5 134.096C520.887 132.304 519.095 129.914 518.124 126.928C517.825 126.106 517.564 125.36 517.34 124.688C517.191 124.016 517.265 123.68 517.564 123.68C518.311 123.68 518.348 123.306 517.676 122.56C517.452 122.261 517.34 121.589 517.34 120.544C517.34 119.424 517.527 118.304 517.9 117.184C518.273 115.989 518.871 115.205 519.692 114.832C520.588 114.384 521.521 114.384 522.492 114.832C523.463 115.205 524.247 115.69 524.844 116.288C525.441 116.885 525.591 117.296 525.292 117.52C525.292 117.52 525.441 117.93 525.74 118.752C526.039 119.498 526.113 120.394 525.964 121.44C526.636 122.56 527.047 123.493 527.196 124.24C527.42 124.912 528.241 125.658 529.66 126.48C530.631 127.226 531.34 127.786 531.788 128.16C532.236 128.533 533.393 128.757 535.26 128.832C536.455 128.832 537.276 128.757 537.724 128.608C538.172 128.458 538.545 128.085 538.844 127.488C539.217 126.89 539.852 125.957 540.748 124.688C540.972 123.269 540.673 120.992 539.852 117.856C539.105 114.72 537.985 111.061 536.492 106.88C534.999 102.624 533.207 98.181 531.116 93.5517C530.668 92.7304 530.257 91.8717 529.884 90.9757C529.585 90.0797 529.436 89.6317 529.436 89.6317C529.66 88.213 529.585 86.9064 529.212 85.7117C528.764 85.3384 528.503 84.4797 528.428 83.1357C528.428 81.717 528.353 80.4477 528.204 79.3277C528.353 77.685 528.503 76.4157 528.652 75.5197C528.801 74.6237 529.287 73.5784 530.108 72.3837C532.273 69.2477 535.223 66.4477 538.956 63.9837C542.689 61.445 546.983 59.8024 551.836 59.0557C552.657 58.9064 553.815 58.8317 555.308 58.8317C556.801 58.8317 558.369 58.9064 560.012 59.0557C561.729 59.1304 563.26 59.2797 564.604 59.5037C566.023 59.7277 566.993 59.9517 567.516 60.1757C570.428 61.445 572.295 63.013 573.116 64.8797C573.937 66.7464 574.385 68.277 574.46 69.4717C574.535 70.3677 574.609 71.0397 574.684 71.4877C574.833 71.861 574.908 72.2344 574.908 72.6077C574.908 72.9064 574.684 73.429 574.236 74.1757C573.863 74.6237 573.079 75.2584 571.884 76.0797C570.689 76.8264 569.308 77.6104 567.74 78.4317C566.247 79.253 564.753 79.9997 563.26 80.6717C561.767 81.269 560.535 81.6424 559.564 81.7917C558.892 82.0904 558.481 82.2397 558.332 82.2397C558.257 82.2397 558.22 82.0904 558.22 81.7917C558.444 81.3437 558.481 81.0077 558.332 80.7837C558.257 80.5597 558.22 80.4477 558.22 80.4477C557.249 80.4477 556.764 80.037 556.764 79.2157C556.764 78.3944 557.473 77.125 558.892 75.4077C560.236 73.9144 561.281 72.4957 562.028 71.1517C562.775 69.8077 562.961 68.949 562.588 68.5757C562.14 68.277 561.356 68.053 560.236 67.9037C559.191 67.7544 557.996 67.6797 556.652 67.6797C555.383 67.6797 554.151 67.7917 552.956 68.0157C549.223 69.1357 546.199 70.5544 543.884 72.2717C541.644 73.9144 540.225 76.005 539.628 78.5437C539.105 79.6637 538.993 80.821 539.292 82.0157C539.665 83.2104 540.151 84.7784 540.748 86.7197C540.897 88.5864 541.047 90.0424 541.196 91.0877C541.42 92.133 541.532 92.7304 541.532 92.8797C541.532 93.1784 541.569 93.6264 541.644 94.2237C541.793 94.7464 541.905 95.717 541.98 97.1357C542.129 97.6584 542.503 98.3677 543.1 99.2637C543.697 100.085 544.705 101.018 546.124 102.064C546.273 103.706 546.535 105.125 546.908 106.32C547.356 107.44 547.617 108.522 547.692 109.568C549.185 112.554 550.193 115.504 550.716 118.416C551.239 121.253 551.425 123.605 551.276 125.472C551.201 127.338 550.903 128.272 550.38 128.272C550.305 128.272 550.268 128.384 550.268 128.608C550.268 128.832 550.305 128.944 550.38 128.944C550.38 129.392 550.081 130.101 549.484 131.072C548.961 131.968 548.289 132.938 547.468 133.984C546.647 135.029 545.825 135.925 545.004 136.672C544.183 137.493 543.511 137.978 542.988 138.128ZM579.371 134.544C577.205 134.917 575.04 134.73 572.875 133.984C570.784 133.237 569.029 132.042 567.611 130.4C566.267 128.682 565.595 126.629 565.595 124.24C565.371 122 565.557 119.349 566.155 116.288C566.827 113.152 567.797 110.016 569.067 106.88C570.411 103.744 571.941 101.093 573.659 98.9277C575.152 97.1357 576.645 95.493 578.139 93.9997C579.632 92.5064 580.976 91.4984 582.171 90.9757C583.216 90.5277 584.485 90.1917 585.979 89.9677C587.547 89.669 588.629 89.5197 589.227 89.5197C590.421 89.8184 591.728 90.3037 593.147 90.9757C594.64 91.6477 595.387 92.4317 595.387 93.3277C595.387 93.3277 595.461 93.4397 595.611 93.6637C595.835 93.813 595.947 93.8877 595.947 93.8877C596.395 93.8877 596.88 94.4477 597.403 95.5677C598 96.613 598.448 97.845 598.747 99.2637C599.045 100.608 598.971 101.69 598.523 102.512C598.224 103.93 597.627 105.312 596.731 106.656C595.909 108 595.2 108.672 594.603 108.672C594.304 108.672 594.005 108.709 593.707 108.784C593.483 108.784 593.371 108.97 593.371 109.344C593.371 109.717 592.96 109.904 592.139 109.904C591.392 109.904 590.608 109.754 589.787 109.456C588.965 109.157 588.443 108.709 588.219 108.112C588.219 107.738 588.293 107.253 588.443 106.656C588.592 106.058 588.816 105.05 589.115 103.632C589.563 101.541 589.6 100.16 589.227 99.4877C588.853 98.741 587.92 98.6664 586.427 99.2637C584.56 100.309 583.029 101.541 581.835 102.96C580.64 104.304 579.557 106.208 578.587 108.672C577.691 111.136 576.683 114.57 575.563 118.976C575.115 120.693 575.04 122.037 575.339 123.008C575.712 123.978 576.011 124.501 576.235 124.576C577.28 124.874 578.4 124.949 579.595 124.8C580.864 124.576 581.909 124.24 582.731 123.792C583.925 123.194 584.971 122.56 585.867 121.888C586.837 121.141 587.883 120.357 589.003 119.536C589.376 119.312 589.712 118.901 590.011 118.304C590.309 117.632 590.757 117.146 591.355 116.848C591.952 115.952 592.699 115.504 593.595 115.504C594.565 115.429 595.499 115.392 596.395 115.392C596.992 115.541 597.627 115.914 598.299 116.512C598.971 117.109 599.456 117.706 599.755 118.304C600.128 118.826 600.091 119.2 599.643 119.424C599.344 119.424 599.157 119.536 599.083 119.76C599.083 119.909 599.083 119.984 599.083 119.984C599.232 120.282 598.896 120.954 598.075 122C597.328 123.045 596.357 124.165 595.163 125.36C593.968 126.554 592.811 127.6 591.691 128.496C590.645 129.317 589.899 129.728 589.451 129.728C588.704 129.728 588.331 129.952 588.331 130.4C588.331 130.549 587.771 130.922 586.651 131.52C585.605 132.117 584.373 132.714 582.955 133.312C581.611 133.909 580.416 134.32 579.371 134.544ZM613.224 132.08C612.328 132.304 611.32 132.042 610.2 131.296C609.08 130.549 608.072 129.616 607.176 128.496C606.28 127.376 605.72 126.368 605.496 125.472C605.197 123.904 605.272 122 605.72 119.76C606.242 117.445 607.101 115.018 608.296 112.48C609.49 109.866 610.984 107.328 612.776 104.864C614.568 102.325 616.584 100.048 618.824 98.0317C621.064 96.0157 623.49 94.4477 626.104 93.3277C627.224 92.7304 628.008 92.357 628.456 92.2077C628.904 91.9837 629.352 91.9837 629.8 92.2077C630.248 92.357 631.032 92.7304 632.152 93.3277C633.197 93.6264 634.242 93.9997 635.288 94.4477C636.408 94.821 637.378 95.5677 638.2 96.6877C638.797 97.8077 639.245 98.9277 639.544 100.048C639.842 101.168 640.104 102.437 640.328 103.856C640.925 105.722 641.149 106.954 641 107.552C640.85 108.074 640.626 108.485 640.328 108.784C639.73 109.53 639.581 109.904 639.88 109.904C639.88 109.904 639.842 110.053 639.768 110.352C639.768 110.576 639.618 110.949 639.32 111.472C638.797 113.114 638.386 114.682 638.088 116.176C637.864 117.594 637.901 118.864 638.2 119.984C638.797 121.626 639.581 122.597 640.552 122.896C641.597 123.194 642.941 122.522 644.584 120.88C645.405 120.282 646.338 119.909 647.384 119.76C648.429 119.536 648.952 119.722 648.952 120.32C648.952 120.32 649.064 120.432 649.288 120.656C649.512 120.805 649.773 120.88 650.072 120.88C650.445 120.88 650.594 121.253 650.52 122C650.445 122.672 650.296 123.456 650.072 124.352C649.848 125.248 649.549 125.994 649.176 126.592C648.056 127.712 647.496 128.458 647.496 128.832C647.496 128.832 647.346 128.981 647.048 129.28C646.824 129.504 646.413 129.877 645.816 130.4C644.472 131.221 642.754 131.632 640.664 131.632C638.648 131.632 637.08 131.221 635.96 130.4C634.84 129.578 633.72 128.57 632.6 127.376C631.554 126.181 630.882 125.061 630.584 124.016L630.024 122.896L626.776 125.024C625.954 125.845 625.357 126.48 624.984 126.928C624.61 127.301 624.274 127.637 623.976 127.936C623.752 128.234 623.49 128.496 623.192 128.72C622.968 128.944 622.706 129.056 622.408 129.056C622.109 129.056 621.848 129.056 621.624 129.056C621.4 129.056 621.288 129.056 621.288 129.056C621.288 129.354 620.765 129.765 619.72 130.288C618.674 130.736 617.517 131.146 616.248 131.52C614.978 131.893 613.97 132.08 613.224 132.08ZM615.576 122.672C616.024 122.672 616.696 122.41 617.592 121.888C618.562 121.29 619.608 120.581 620.728 119.76C621.848 118.938 622.856 118.117 623.752 117.296C624.722 116.474 625.432 115.802 625.88 115.28C626.178 114.981 626.514 114.496 626.888 113.824C627.336 113.152 627.821 112.554 628.344 112.032C630.061 110.09 631.144 108.56 631.592 107.44C632.04 106.245 631.853 104.976 631.032 103.632C630.733 102.81 630.36 102.362 629.912 102.288C629.464 102.213 628.53 102.474 627.112 103.072C626.216 103.594 625.245 104.453 624.2 105.648C623.154 106.842 622.072 108.186 620.952 109.68C619.906 111.173 618.936 112.704 618.04 114.272C617.144 115.84 616.397 117.258 615.8 118.528C615.277 119.797 615.016 120.805 615.016 121.552C615.016 121.85 615.09 122.112 615.24 122.336C615.464 122.56 615.576 122.672 615.576 122.672ZM689.265 133.648C688.145 133.648 687.063 133.312 686.017 132.64C684.972 131.893 684.113 130.885 683.441 129.616C682.769 128.272 682.433 126.704 682.433 124.912C682.433 123.792 682.62 122.224 682.993 120.208C683.441 118.117 684.076 115.504 684.897 112.368C685.047 111.322 685.159 110.65 685.233 110.352C685.383 110.053 685.457 109.754 685.457 109.456C685.457 109.306 685.42 109.194 685.345 109.12C685.345 108.97 685.271 108.896 685.121 108.896C684.524 108.896 683.703 109.306 682.657 110.128C681.687 110.874 680.567 111.77 679.297 112.816C679.073 112.965 678.812 113.152 678.513 113.376C678.289 113.6 678.028 113.824 677.729 114.048C677.505 114.272 677.244 114.496 676.945 114.72C676.199 115.168 675.041 116.026 673.473 117.296C671.98 118.565 670.412 119.909 668.769 121.328C667.201 122.746 665.82 123.941 664.625 124.912C664.028 125.36 663.505 125.733 663.057 126.032C662.684 126.33 662.423 126.48 662.273 126.48C662.124 126.48 661.527 126.293 660.481 125.92C659.511 125.472 658.54 124.874 657.569 124.128C656.673 123.306 656.225 122.373 656.225 121.328C656.225 120.656 656.487 119.312 657.009 117.296C657.607 115.28 658.428 112.89 659.473 110.128C660.519 107.365 661.713 104.565 663.057 101.728C663.356 101.056 663.58 100.16 663.729 99.0397C663.879 97.9197 664.028 96.837 664.177 95.7917C664.401 94.6717 664.775 93.8504 665.297 93.3277C665.521 92.9544 665.783 92.693 666.081 92.5437C666.455 92.3197 666.828 92.2077 667.201 92.2077C667.948 92.2077 668.657 92.3944 669.329 92.7677C670.001 93.0664 670.636 93.589 671.233 94.3357C672.353 95.5304 672.951 96.949 673.025 98.5917C673.175 100.16 673.063 101.69 672.689 103.184C672.316 104.677 671.905 105.909 671.457 106.88C671.009 107.776 670.785 108.149 670.785 108C671.084 107.85 671.495 107.477 672.017 106.88C672.615 106.282 673.623 105.573 675.041 104.752C676.983 103.258 678.476 102.213 679.521 101.616C680.567 100.944 681.351 100.458 681.873 100.16C682.471 99.861 682.993 99.525 683.441 99.1517C683.815 98.853 684.076 98.6664 684.225 98.5917C684.449 98.517 684.561 98.4797 684.561 98.4797C684.785 98.4797 685.159 98.3304 685.681 98.0317C686.279 97.733 686.839 97.5837 687.361 97.5837C688.108 97.5837 688.892 97.7704 689.713 98.1437C690.535 98.4424 691.244 98.8904 691.841 99.4877C692.439 100.01 692.737 100.57 692.737 101.168C692.737 101.392 692.812 101.578 692.961 101.728C693.111 101.877 693.26 102.064 693.409 102.288C693.783 102.736 694.193 103.37 694.641 104.192C695.164 104.938 695.425 106.17 695.425 107.888C695.425 109.082 695.164 110.837 694.641 113.152C694.119 115.466 693.559 117.744 692.961 119.984C692.364 122.298 692.065 124.165 692.065 125.584C692.14 126.928 692.289 127.973 692.513 128.72C692.737 129.392 692.849 129.952 692.849 130.4C692.849 130.997 692.551 131.706 691.953 132.528C691.356 133.274 690.46 133.648 689.265 133.648ZM746.965 104.752C745.397 105.274 744.09 105.536 743.045 105.536C741.999 105.461 740.842 104.976 739.573 104.08C738.079 102.586 737.594 101.093 738.117 99.5997C738.639 98.0317 739.983 96.501 742.149 95.0077C743.642 94.1117 744.725 93.6637 745.397 93.6637C746.143 93.589 747.226 93.8504 748.645 94.4477C751.109 96.0157 752.191 97.7704 751.893 99.7117C751.669 101.578 750.026 103.258 746.965 104.752ZM739.125 128.272C737.557 128.794 736.25 129.056 735.205 129.056C734.159 128.981 733.002 128.496 731.733 127.6C730.239 126.106 729.754 124.613 730.277 123.12C730.799 121.552 732.143 120.021 734.309 118.528C735.802 117.632 736.885 117.184 737.557 117.184C738.303 117.109 739.386 117.37 740.805 117.968C743.269 119.536 744.351 121.29 744.053 123.232C743.829 125.098 742.186 126.778 739.125 128.272ZM751.136 149.216C749.717 148.842 748.336 148.021 746.992 146.752C745.648 145.557 744.938 144.4 744.864 143.28C744.938 143.056 744.976 142.608 744.976 141.936C744.976 141.264 745.125 140.666 745.424 140.144C745.424 140.144 745.648 140.256 746.096 140.48C746.618 140.704 747.477 140.666 748.672 140.368C750.165 140.442 751.285 140.293 752.032 139.92C752.778 139.546 753.712 138.725 754.832 137.456C755.653 136.336 756.586 135.178 757.632 133.984C758.752 132.714 759.498 131.594 759.872 130.624C761.066 129.802 761.925 129.056 762.448 128.384C762.97 127.637 763.456 126.89 763.904 126.144C763.904 125.77 764.016 125.098 764.24 124.128C764.464 123.082 765.024 121.85 765.92 120.432C766.741 118.565 767.525 116.997 768.272 115.728C769.018 114.384 769.392 113.525 769.392 113.152C769.392 113.152 769.504 112.89 769.728 112.368C769.952 111.845 770.026 111.21 769.952 110.464C770.4 110.24 770.773 109.754 771.072 109.008C771.445 108.186 771.594 107.365 771.52 106.544C771.52 106.32 771.856 105.461 772.528 103.968C773.2 102.4 773.573 100.832 773.648 99.2637C774.469 96.5757 775.066 94.1864 775.44 92.0957C775.888 89.9304 776.224 87.5784 776.448 85.0397C776.672 82.501 776.896 79.253 777.12 75.2957C777.269 71.9357 777.381 69.4344 777.456 67.7917C777.53 66.0744 777.493 64.7677 777.344 63.8717C777.269 62.9757 776.933 62.0797 776.336 61.1837C775.589 58.7944 774.954 57.5997 774.432 57.5997C774.208 57.5997 774.021 57.1517 773.872 56.2557C773.722 55.3597 773.797 54.389 774.096 53.3437C774.021 53.045 774.544 52.709 775.664 52.3357C776.858 51.9624 777.792 51.813 778.464 51.8877C778.986 51.8877 779.546 52.1117 780.144 52.5597C780.816 52.933 781.264 53.269 781.488 53.5677C781.786 53.269 782.234 53.7544 782.832 55.0237C783.504 56.293 784.213 58.0104 784.96 60.1757C785.408 61.221 785.744 62.117 785.968 62.8637C786.192 63.5357 786.341 64.3197 786.416 65.2157C786.49 66.037 786.49 67.2317 786.416 68.7997C786.341 70.293 786.229 72.3837 786.08 75.0717C786.08 77.685 785.893 80.5597 785.52 83.6957C785.221 86.757 784.848 89.781 784.4 92.7677C783.952 95.6797 783.466 98.3304 782.944 100.72C782.421 102.661 781.712 105.013 780.816 107.776C779.92 110.464 778.912 113.189 777.792 115.952C776.746 118.714 775.738 121.178 774.768 123.344C773.872 125.509 773.125 127.04 772.528 127.936C772.677 127.936 772.453 128.384 771.856 129.28C771.333 130.176 770.586 131.333 769.616 132.752C768.72 134.096 767.786 135.477 766.816 136.896C765.845 138.389 765.024 139.658 764.352 140.704C763.232 142.272 761.813 143.765 760.096 145.184C758.378 146.602 756.698 147.685 755.056 148.432C753.488 149.253 752.181 149.514 751.136 149.216Z" fill="#0099FF"/>
<path fill-rule="evenodd" clip-rule="evenodd" d="M204.419 0.321655C189.999 2.06886 160.3 11.3702 142.591 19.6694C134.217 23.5492 121.512 31.2062 115.18 36.1395C100.555 47.5477 79.9254 71.0578 65.5866 92.5895C51.0027 114.532 36.8681 141.357 23.9387 171.496L19.3839 182.108L19.6289 178.048C19.7719 175.813 20.1804 169.312 20.5277 163.634L21.1814 153.279L19.5473 150.093C16.463 144.055 8.14981 135.37 6.59745 136.552C5.94385 137.041 5.10639 141.1 5.06554 144.029C5.06554 145.391 4.67745 148.089 4.16681 149.965C3.51319 152.406 3.37021 153.845 3.71744 154.898C3.96255 155.823 3.96254 161.065 3.61531 168.31C2.67573 189.2 2.12426 196.883 1.04169 204.231L0 211.348L1.42978 214.842C4.16682 221.394 15.6665 234.19 18.8732 234.19C20.4664 234.19 24.3269 229.462 38.7473 209.859C45.2018 201.121 56.8852 185.834 64.8308 175.993L79.1697 158.033L77.9849 155.104C75.6972 149.554 65.7296 138.145 63.156 138.145C62.6657 138.145 50.2062 149.631 45.9985 153.999L43.5677 156.568L44.9567 153.459C47.5303 147.781 59.4384 125.504 63.6053 118.541C73.43 102.148 86.5637 84.2389 97.2667 72.5739C113.137 55.3074 130.54 42.1262 147.146 34.829C166.775 26.1701 186.363 20.1834 205.911 16.7403C214.938 15.1729 241.859 15.1729 250.296 16.7403C264.819 19.4895 286.04 26.9666 301.36 34.7775C305.669 37.013 306.813 37.8866 310.142 41.8949C314.206 46.7512 317.088 48.5755 317.374 46.3915C317.863 43.0254 310.224 31.7971 303.687 26.3756C298.541 22.0076 293.087 19.0272 281.465 14.0938C266.39 7.67024 253.298 3.73901 239.122 1.29804C232.28 0.116113 211.159 -0.449149 204.419 0.424454V0.321655Z" fill="#0099FF"/>
</svg>
