<svg xmlns="http://www.w3.org/2000/svg"  viewBox="0 0 72 72" width="64px" height="64px"><path d="M 36 15 C 33.791 15 32 16.791 32 19 L 32 43.560547 L 30.220703 41.837891 C 29.444703 41.085891 28.442453 40.710938 27.439453 40.710938 C 26.395453 40.710938 25.351453 41.117734 24.564453 41.927734 C 23.028453 43.514734 23.06925 46.046984 24.65625 47.583984 L 33.216797 55.873047 C 34.766797 57.375047 37.23025 57.375047 38.78125 55.873047 L 47.341797 47.583984 C 48.928797 46.047984 48.969594 43.514734 47.433594 41.927734 C 45.894594 40.339734 43.362344 40.300891 41.777344 41.837891 L 40 43.558594 L 40 19 C 40 16.791 38.209 15 36 15 z"/></svg>