<svg xmlns="http://www.w3.org/2000/svg"  viewBox="0 0 72 72" width="64px" height="64px"><path d="M 36 9 C 33.791 9 32 10.791 32 13 L 32 36.359375 L 28.835938 33.179688 C 27.276937 31.611688 24.744688 31.604063 23.179688 33.164062 C 21.612687 34.721062 21.606063 37.255313 23.164062 38.820312 L 33.164062 48.871094 C 33.915062 49.626094 34.936 50.050781 36 50.050781 C 37.064 50.050781 38.084938 49.626094 38.835938 48.871094 L 48.835938 38.820312 C 50.392938 37.255313 50.386313 34.722062 48.820312 33.164062 C 47.256313 31.605062 44.725062 31.615687 43.164062 33.179688 L 40 36.359375 L 40 13 C 40 10.791 38.209 9 36 9 z M 12 41 C 9.791 41 8 42.791 8 45 L 8 52 C 8 56.963 12.037 61 17 61 L 55 61 C 59.963 61 64 56.963 64 52 L 64 45 C 64 42.791 62.209 41 60 41 C 57.791 41 56 42.791 56 45 L 56 52 C 56 52.552 55.552 53 55 53 L 17 53 C 16.448 53 16 52.552 16 52 L 16 45 C 16 42.791 14.209 41 12 41 z"/></svg>