<svg xmlns="http://www.w3.org/2000/svg"  viewBox="0 0 72 72" width="64px" height="64px"><path d="M29.902,39.668v-0.177c0-3.211,1.738-5.362,4.949-7.189c4.008-2.357,5.039-3.624,5.039-6.158	c0-2.386-1.916-4.066-4.566-4.066c-2.357,0-3.949,1.09-4.861,3.241c-0.855,1.915-2.535,2.888-4.598,2.888	c-2.77,0-4.537-1.709-4.508-4.361c0-1.267,0.295-2.417,0.914-3.536c1.973-3.712,6.895-6.247,13.582-6.247	c8.928,0,14.791,4.656,14.791,11.815c0,4.332-2.031,7.337-6.363,9.841c-3.841,2.215-4.721,3.283-5.305,5.208	c-0.03,0.098-0.059,0.198-0.087,0.301c-0.678,2.063-2.062,3.153-4.33,3.153C31.728,44.383,29.902,42.468,29.902,39.668z M29.136,52.633c0-2.946,2.475-5.274,5.568-5.274c3.064,0,5.568,2.328,5.568,5.274c0,2.976-2.504,5.304-5.568,5.304	C31.611,57.937,29.136,55.609,29.136,52.633z"/></svg>