<svg xmlns="http://www.w3.org/2000/svg"  viewBox="0 0 24 24" width="64px" height="64px"><path d="M 8,1.25 H 4 A 2.752,2.752 0 0 0 1.25,4 V 8 A 2.752,2.752 0 0 0 4,10.75 H 8 A 2.752,2.752 0 0 0 10.75,8 V 4 A 2.752,2.752 0 0 0 8,1.25 Z M 6,7.5 A 1.5,1.5 0 1 1 7.5,6 1.5,1.5 0 0 1 6,7.5 Z m 2,5.75 H 4 A 2.752,2.752 0 0 0 1.25,16 v 4 A 2.752,2.752 0 0 0 4,22.75 H 8 A 2.752,2.752 0 0 0 10.75,20 V 16 A 2.752,2.752 0 0 0 8,13.25 Z M 6,19.5 A 1.5,1.5 0 1 1 7.5,18 1.5,1.5 0 0 1 6,19.5 Z m 9,0 a 1.5,1.5 0 1 0 0,3 1.5,1.5 0 1 0 0,-3 z m 2.5,-3 a 1.5,1.5 0 1 0 0,3 1.5,1.5 0 1 0 0,-3 z m 2.5,3 a 1.5,1.5 0 1 0 0,3 1.5,1.5 0 1 0 0,-3 z M 20,1.25 H 16 A 2.752,2.752 0 0 0 13.25,4 V 8 A 2.752,2.752 0 0 0 16,10.75 h 4 A 2.752,2.752 0 0 0 22.75,8 V 4 A 2.752,2.752 0 0 0 20,1.25 Z M 18,7.5 A 1.5,1.5 0 1 1 19.5,6 1.5,1.5 0 0 1 18,7.5 Z m 4,8.25 h -9 a 0.75,0.75 0 0 1 0,-1.5 h 9 a 0.75,0.75 0 0 1 0,1.5 z"/></svg>