<svg xmlns="http://www.w3.org/2000/svg" viewBox="0 0 72 72" width="64px" height="64px" fill="#000"><path d="M17.615,53.126c0-1.355,0.412-2.534,1.531-4.037l9.605-13.23v-0.235l-9.223-12.257c-1.266-1.65-1.648-2.858-1.648-4.302	c0-2.947,2.268-5.068,5.42-5.068c2.033,0,3.537,0.914,4.832,2.917l8.074,12.11h0.207l8.367-12.464	c1.209-1.797,2.27-2.563,4.361-2.563c2.799,0,5.244,2.004,5.244,4.597c0,1.415-0.412,2.593-1.473,3.948l-10.166,13.2v0.207	l9.871,12.964c1.09,1.355,1.502,2.593,1.502,4.066c0,2.829-2.121,4.833-5.098,4.833c-1.973,0-3.27-0.766-4.684-2.682l-8.574-11.756	h-0.236l-8.309,11.845c-1.326,1.886-2.506,2.593-4.537,2.593C19.824,57.811,17.615,55.748,17.615,53.126z"/></svg>